{"title":"Cher Lloyd - Swagger Jagger- 2011 (UJ.rip)","uid":6512315,"size":55641743,"categoryP":"video","categoryS":"music_videos","magnet":"?xt=urn:btih:213ee753c62eb4ad83669c931cc347162e910e5a&amp;dn=Cher+Lloyd+-+Swagger+Jagger-+2011+%28UJ.rip%29&amp;tr=udp%3A%2F%2Ftracker.openbittorrent.com%3A80&amp;tr=udp%3A%2F%2Fopen.demonii.com%3A1337&amp;tr=udp%3A%2F%2Ftracker.coppersurfer.tk%3A6969&amp;tr=udp%3A%2F%2Fexodus.desync.com%3A6969","seeders":0,"leechers":1,"uploader":"utpaljoshi123","files":39,"time":1309682783,"description":"Cher Lloyd - Swagger Jagger- 2011 (UJ.rip)\n------------------------------------------------------\nFormat                           : AVI\nFormat/Info                      : Audio Video Interleave\nFile size                        : 52.1 MiB\nDuration                         : 3mn 25s\nOverall bit rate                 : 2 124 Kbps\nWriting application              : Lavf52.39.1\n\nVideo\nID                               : 0\nFormat                           : MPEG-4 Visual\nFormat profile                   : Advanced Simple@L1\nFormat settings, BVOP            : 2\nFormat settings, QPel            : No\nFormat settings, GMC             : No warppoints\nFormat settings, Matrix          : Default (H.263)\nCodec ID                         : divx\nCodec ID/Info                    : Mainly used by Google\nCodec ID/Hint                    : DivX\nDuration                         : 3mn 25s\nBit rate                         : 2 047 Kbps\nWidth                            : 720 pixels\nHeight                           : 480 pixels\nDisplay aspect ratio             : 3:2\nFrame rate                       : 25.000 fps\nStandard                         : NTSC\nColor space                      : YUV\nChroma subsampling               : 4:2:0\nBit depth                        : 8 bits\nScan type                        : Progressive\nCompression mode                 : Lossy\nBits/(Pixel*Frame)               : 0.237\nStream size                      : 50.2 MiB (96%)\nWriting library                  : Lavc52.37.0\n\nAudio\nID                               : 1\nFormat                           : MPEG Audio\nFormat version                   : Version 1\nFormat profile                   : Layer 3\nMode                             : Joint stereo\nMode extension                   : MS Stereo\nCodec ID                         : 55\nCodec ID/Hint                    : MP3\nDuration                         : 3mn 25s\nBit rate mode                    : Constant\nBit rate                         : 64.0 Kbps\nChannel(s)                       : 2 channels\nSampling rate                    : 44.1 KHz\nCompression mode                 : Lossy\nStream size                      : 1.57 MiB (3%)\nAlignment                        : Aligned on interleaves\nInterleave, duration             : 26 ms (0.65 video frame)\n\n-------------------------------------------------------------\n &lt;a href=&quot;\nhttp://thepiratebay.se/user/utpaljoshi123&quot; rel=&quot;nofollow&quot; target=&quot;_NEW&quot;&gt;\nhttp://thepiratebay.se/user/utpaljoshi123&lt;/a&gt;","torrent":{"xt":"urn:btih:213ee753c62eb4ad83669c931cc347162e910e5a","amp;dn":"Cher+Lloyd+-+Swagger+Jagger-+2011+%28UJ.rip%29","amp;tr":["udp%3A%2F%2Ftracker.openbittorrent.com%3A80","udp%3A%2F%2Fopen.demonii.com%3A1337","udp%3A%2F%2Ftracker.coppersurfer.tk%3A6969","udp%3A%2F%2Fexodus.desync.com%3A6969"],"infoHash":"213ee753c62eb4ad83669c931cc347162e910e5a","infoHashBuffer":{"type":"Buffer","data":[33,62,231,83,198,46,180,173,131,102,156,147,28,195,71,22,46,145,14,90]},"announce":[],"urlList":[]}}